PathFileType	4	(X/Y/Z)	..\data\2015035\dynamic\2015035_C5_03.trc
DataRate	CameraRate	NumFrames	NumMarkers	Units	OrigDataRate	OrigDataStartFrame	OrigNumFrames
100.000000	100.000000	4	52	mm	100.000000	60	161
Frame#	Time	L_IAS			L_IPS			R_IPS			R_IAS			L_FTC			L_FLE			L_FME			L_FAX			L_TTC			L_FAL			L_TAM			L_FCC			L_FM1			L_FM2			L_FM5			R_FTC			R_FLE			R_FME			R_FAX			R_TTC			R_FAL			R_TAM			R_FCC			R_FM1			R_FM2			R_FM5			CV7			TV10			SXS			SJN			L_SIA			L_SRS			L_SAA			L_SAE			L_HLE			L_HME			L_UOA			L_RSP			L_UHE			L_HM2			L_HM5			R_SIA			R_SRS			R_SAA			R_SAE			R_HLE			R_HME			R_UOA			R_RSP			R_UHE			R_HM2			R_HM5			
		X1	Y1	Z1	X2	Y2	Z2	X3	Y3	Z3	X4	Y4	Z4	X5	Y5	Z5	X6	Y6	Z6	X7	Y7	Z7	X8	Y8	Z8	X9	Y9	Z9	X10	Y10	Z10	X11	Y11	Z11	X12	Y12	Z12	X13	Y13	Z13	X14	Y14	Z14	X15	Y15	Z15	X16	Y16	Z16	X17	Y17	Z17	X18	Y18	Z18	X19	Y19	Z19	X20	Y20	Z20	X21	Y21	Z21	X22	Y22	Z22	X23	Y23	Z23	X24	Y24	Z24	X25	Y25	Z25	X26	Y26	Z26	X27	Y27	Z27	X28	Y28	Z28	X29	Y29	Z29	X30	Y30	Z30	X31	Y31	Z31	X32	Y32	Z32	X33	Y33	Z33	X34	Y34	Z34	X35	Y35	Z35	X36	Y36	Z36	X37	Y37	Z37	X38	Y38	Z38	X39	Y39	Z39	X40	Y40	Z40	X41	Y41	Z41	X42	Y42	Z42	X43	Y43	Z43	X44	Y44	Z44	X45	Y45	Z45	X46	Y46	Z46	X47	Y47	Z47	X48	Y48	Z48	X49	Y49	Z49	X50	Y50	Z50	X51	Y51	Z51	X52	Y52	Z52	

61	0.6	-393.2828369140626	940.0031738281252	137.8900756835937	-592.2796630859376	959.6260375976565	214.9298858642578	-592.9403076171876	954.1873779296877	299.3295593261719	-417.2886352539064	930.7251586914065	403.3355102539063	-470.5545043945314	873.0726318359377	76.71079254150386	-290.9403076171876	467.9580078125001	107.1500854492187	-313.272430419922	471.2192993164064	244.5755310058594	-287.9136047363282	417.0205688476564	104.0634155273438	-225.0383300781251	409.4538879394532	165.5560913085938	-238.0003967285157	58.60417938232423	141.3846893310547	-220.1197509765626	80.65537261962892	236.6728515625	-279.2948303222657	16.45930862426758	195.8049468994141	-88.68527221679692	38.13676834106446	226.3814239501954	-81.55356597900395	52.75020599365236	175.809799194336	-125.5248641967774	26.07452201843262	122.3772888183594	-517.7567138671876	847.6289672851565	445.8151550292969	-620.0814819335939	445.8977050781251	402.9142456054688	-599.9465332031251	447.1063232421876	279.5110778808594	-664.7092895507814	418.196014404297	398.4291687011719	-618.1491088867189	363.2423095703126	357.789794921875	-903.391540527344	145.2457122802735	359.4307861328124	-850.8220214843752	137.5994262695313	277.7243957519531	-946.1566162109377	137.9579010009766	305.8275451660156	-813.0432128906252	22.59693717956543	270.7233276367187	-799.4525146484377	28.47215080261231	324.8786315917968	-858.1755981445315	26.60603141784669	377.1640319824218	-553.5787963867189	1466.280517578125	256.837890625	-614.2966918945314	1177.9677734375	270.9034729003906	-362.8158264160157	1208.36279296875	249.2554779052734	-414.205780029297	1377.774780273438	248.3565979003906	-637.9489135742189	1251.910278320313	161.7141876220703	-603.5650634765626	1400.296264648438	171.1871185302734	-539.1026000976564	1394.837158203125	71.30973815917963	-494.5144042968751	1390.942504882813	56.77407455444331	-592.3305664062501	1100.679321289063	-20.49236869812019	-619.8189697265626	1087.698486328125	69.70973205566401	-636.7407226562501	1081.783081054688	16.570909500122	-566.5876464843751	823.278747558594	-14.00549125671394	-619.1707763671876	843.9307861328127	-67.66381835937509	-566.0214233398439	733.0560302734376	-24.45521926879891	-655.3806152343751	771.146667480469	-72.70661163330088	-603.7777099609376	1255.435546875	401.1801147460938	-579.5817871093751	1399.5751953125	364.6899719238281	-496.3878479003908	1389.826782226563	455.9656372070313	-444.6105957031252	1392.338623046875	457.5804748535157	-419.6475219726564	1104.777465820313	566.6121826171876	-463.4296264648439	1075.241943359375	486.6597595214844	-449.294647216797	1055.098266601563	549.1755371093751	-188.2831420898438	972.1608886718752	489.6495971679689	-224.2318725585939	922.8067016601565	540.0485229492189	-107.7983169555665	929.7634277343752	487.8869934082032	-181.0584411621095	869.4191894531252	538.1475219726564	
62	0.61	-376.7134094238282	942.6819458007815	136.5217132568359	-575.4438476562501	960.846618652344	214.8399200439453	-576.1803588867189	954.2112426757815	299.2313537597656	-399.9306945800783	931.0651855468752	401.7143859863282	-453.6273193359376	876.0371704101565	75.60113525390621	-274.9956359863282	469.6057434082032	106.6076126098633	-297.8281555175782	473.2615661621095	243.4880065917969	-273.1703186035157	418.3403930664064	103.2640762329102	-211.3023529052735	408.982147216797	165.3321990966797	-236.2451171875001	58.26971435546876	141.5049438476562	-218.5279541015626	79.42824554443361	237.1828155517578	-279.5935058593751	17.23609924316407	195.387451171875	-87.65282440185551	32.32625198364259	227.1788330078126	-78.96472167968754	46.80002212524415	176.0404510498047	-124.8256149291993	22.19215774536133	122.0556793212891	-499.417938232422	846.2156982421877	444.9029235839844	-596.3527221679689	443.8172912597657	405.1173095703126	-574.2775268554689	443.0938415527345	281.9955444335938	-641.4031982421876	417.2687072753907	400.7468261718751	-595.5712890625001	360.5592956542969	361.3302612304688	-888.1475830078127	153.6947937011719	361.3065185546874	-835.3610839843752	142.515625	280.7637023925781	-930.204772949219	150.5566864013672	307.2278747558593	-810.8066406250002	24.67841911315919	271.0171203613281	-798.457458496094	28.84674644470216	324.7995910644531	-854.2346191406252	30.62862586975098	377.0556030273437	-537.4117431640626	1467.356201171875	254.7038879394531	-597.5490112304689	1178.967407226563	269.87451171875	-346.0469970703126	1209.80419921875	248.0625915527344	-397.7744445800783	1379.13720703125	246.7384643554688	-620.6931152343751	1252.56396484375	159.9184417724609	-586.9455566406251	1400.804565429688	169.0160675048828	-522.0740966796876	1395.2685546875	69.21070098876949	-477.4005432128907	1391.3486328125	55.02581024169918	-572.6740112304689	1100.227661132813	-21.92278289794929	-600.1534423828126	1087.390991210938	68.28717803955072	-617.1188354492189	1081.140869140625	15.05031013488762	-544.0946655273439	823.1350097656252	-13.88486480712898	-596.6400756835939	842.9887695312502	-68.03797912597665	-542.6555175781251	733.1502075195314	-24.01090431213386	-632.1717529296876	769.8972167968752	-72.92007446289071	-587.3066406250001	1257.04833984375	400.0611572265626	-563.2333374023439	1401.0986328125	362.9620666503906	-479.9320068359377	1391.80712890625	454.1495056152344	-428.1724853515627	1394.03271484375	455.7366027832032	-406.9841308593752	1105.894287109375	565.0349121093751	-451.3416442871095	1077.370849609375	484.9511413574219	-437.8005981445314	1056.942749023438	547.7056884765626	-179.0420989990235	966.4151000976565	488.8817138671876	-216.4846801757814	918.5080566406252	539.5549316406251	-99.85909271240243	921.557556152344	487.4661865234376	-175.0512084960938	863.769470214844	538.0635986328126	
63	0.62	-360.2825317382813	945.3931274414065	135.1387329101562	-558.7503051757814	962.1945800781252	214.7217864990234	-559.5896606445314	954.3359375000002	299.0936584472656	-382.7662353515626	931.5279541015627	400.1305541992188	-437.1332397460939	878.917175292969	74.51847076416011	-260.3395996093751	470.8861694335939	105.9822082519531	-283.2800292968751	474.9951782226564	242.451400756836	-259.6510925292969	419.3729248046876	102.489616394043	-198.5864257812501	408.3583374023439	164.8860931396484	-234.8859405517579	58.14084625244142	141.632080078125	-217.2331848144532	78.47811126708986	237.6287078857422	-279.8859558105469	17.97747993469239	195.027816772461	-86.90359497070317	27.61044692993165	227.6979522705079	-76.70296478271489	41.96378326416016	175.9307250976563	-124.465560913086	19.21740531921387	121.4738464355469	-481.133758544922	844.8560791015627	443.9318847656251	-571.4629516601564	441.6384277343751	407.3539428710938	-547.2872924804689	439.0237731933595	284.5609436035156	-616.7999877929689	416.2688903808595	403.1138916015626	-571.6690063476564	357.9164428710938	364.8556518554688	-870.9971923828127	162.3094482421875	362.9764709472656	-818.0725708007815	147.552734375	283.6230163574218	-912.1889648437502	163.1919403076172	308.4161987304687	-806.732604980469	27.41767501831055	271.6906127929687	-795.7741699218752	29.68616485595704	325.1741638183593	-848.5725097656252	35.64851760864259	377.0845031738281	-521.3591308593751	1468.546020507813	252.6445159912109	-580.9323730468751	1180.088623046875	268.7232360839844	-329.3822021484376	1211.366821289063	246.9970703125	-381.457977294922	1380.616333007813	245.2527160644531	-603.4535522460939	1253.348266601563	157.9674224853515	-570.3411865234376	1401.443603515625	166.8291320800781	-505.0005798339845	1395.86572265625	67.13910675048824	-460.2393188476564	1391.968139648438	53.33874511718746	-552.7178344726564	1099.958129882813	-23.48881149291999	-580.3930053710939	1087.178588867188	66.68048095703119	-597.2274169921876	1080.552490234375	13.33945465087884	-520.6959228515626	823.2490844726565	-13.66364383697517	-573.2174682617189	842.1156005859377	-68.33969116210946	-518.0432739257814	733.5690917968751	-23.41644859313972	-607.8186645507814	768.6033935546877	-73.00492858886727	-571.0825195312501	1258.704345703125	398.8404541015626	-547.0881958007814	1402.684326171875	361.2302551269531	-463.7337036132814	1393.799682617188	452.4224853515626	-411.9744567871095	1395.749633789063	454.0090026855469	-394.3480529785158	1107.080688476563	563.5192260742189	-439.4697875976564	1079.578369140625	483.4626770019532	-426.4216613769533	1058.95703125	546.4212646484376	-170.4813079833985	960.2971191406252	488.0153198242189	-209.3180999755861	914.0567626953127	539.1145019531251	-92.78404998779304	912.8092041015627	486.8028869628907	-169.8135681152345	857.9136962890627	538.0231323242189	
64	0.63	-344.0114746093751	948.0463867187502	133.7856292724609	-542.2424926757814	963.671325683594	214.5521240234375	-543.2012329101564	954.591979980469	298.8882141113281	-365.8653564453126	932.1224365234377	398.6424560546876	-421.112274169922	881.6448974609377	73.4778671264648	-247.0699920654297	471.7466125488282	105.2920684814453	-269.743377685547	476.374237060547	241.4862213134766	-247.4487915039063	420.0750427246095	101.7658767700195	-186.9593048095704	407.5733337402345	164.2458343505859	-233.805389404297	58.18846511840822	141.7943878173828	-216.1336212158204	77.77954101562501	238.0364990234375	-280.0603027343751	18.65052223205567	194.7583312988282	-86.32064056396489	24.01794242858887	228.0032958984376	-74.6835098266602	38.26493453979493	175.5724792480469	-124.2985000610352	17.13735389709473	120.7364730834961	-463.0086975097658	843.6263427734377	442.8927307128907	-545.5346069335939	439.4783935546876	409.5514831542969	-519.1793212890626	435.1125793457032	287.1061401367188	-591.0092163085939	415.2902221679689	405.4473876953126	-546.5540771484376	355.4462890625001	368.221923828125	-852.0323486328127	171.0073547363282	364.3940734863281	-799.053405761719	152.7393341064453	286.2047424316406	-892.2756958007815	175.6089477539063	309.3654785156249	-800.3509521484377	30.79553413391114	272.8334045410156	-790.8739013671877	31.09816551208497	326.1080322265624	-840.7880859375002	41.66046142578126	377.3389282226562	-505.4468994140627	1469.844360351563	250.6766204833984	-564.4873046875001	1181.324096679688	267.4696350097656	-312.8718872070314	1213.025268554688	246.0870819091797	-365.2920532226564	1382.191528320313	243.9236297607422	-586.2725219726564	1254.250854492188	155.8721771240234	-553.7794799804689	1402.215942382813	164.6522827148437	-487.912322998047	1396.61669921875	65.11862945556636	-443.0560607910157	1392.785766601563	51.73968124389644	-532.4801025390626	1099.8701171875	-25.17660713195808	-560.5905761718751	1087.0478515625	64.8961563110351	-577.0844726562501	1080.0078125	11.44613742828362	-496.4596557617189	823.6296997070315	-13.35163116455085	-548.9346923828126	841.3384399414065	-68.57521820068368	-492.247528076172	734.3159790039064	-22.6767539978028	-582.3479003906251	767.2997436523439	-72.98412322998055	-555.1680297851564	1260.36767578125	397.4898071289063	-531.1963500976564	1404.31103515625	359.5001831054688	-447.8648986816408	1395.769897460938	450.8086242675782	-396.0899658203127	1397.465087890625	452.4414672851563	-381.7225952148439	1108.298095703125	562.0594482421876	-427.7950744628908	1081.809692382813	482.2064208984376	-415.1232299804689	1061.105102539063	545.3208618164064	-162.6145172119141	953.8723144531252	487.0515747070314	-202.6870880126954	909.515563964844	538.7475585937501	-86.59101104736335	903.6221313476565	485.890838623047	-165.2821044921876	851.948669433594	538.0476684570314	
